<svg width="126" height="21" viewBox="0 0 126 21" fill="none" xmlns="http://www.w3.org/2000/svg">
<path d="M13.5335 7.05103C14.0375 6.81801 14.3601 6.31337 14.3601 5.75813C14.3601 4.7189 13.2832 4.02949 12.3394 4.46453L8.05177 6.44093C7.46807 6.70999 6.83298 6.84932 6.19025 6.84932H1.29644C0.580439 6.84932 0 7.42976 0 8.14576C0 8.86177 0.580438 9.44221 1.29644 9.44221H6.85401C7.84736 9.44221 8.82884 9.22629 9.73047 8.80941L13.5335 7.05103Z" fill="black"/>
<path d="M20.4475 14.5355C19.9329 14.8002 19.6094 15.3304 19.6094 15.9091C19.6094 17.0677 20.8376 17.8139 21.8659 17.28L25.7948 15.2398C26.3976 14.9268 27.0668 14.7634 27.7461 14.7634H31.4694C32.2648 14.7634 32.9097 14.1186 32.9097 13.3231C32.9097 12.5277 32.2648 11.8828 31.4694 11.8828H27.0286C26.0929 11.8828 25.1708 12.1061 24.3387 12.5341L20.4475 14.5355Z" fill="black"/>
<path d="M24.2932 6.31042C23.2096 6.31042 22.1375 6.53398 21.1442 6.96711L11.0387 11.3734C10.0454 11.8065 8.97337 12.03 7.88969 12.03H1.44054C0.644951 12.03 0 12.675 0 13.4706C0 14.2662 0.64495 14.9111 1.44054 14.9111H9.21795C10.302 14.9111 11.3744 14.6874 12.368 14.254L22.5817 9.79881C23.5036 9.39667 24.4986 9.1891 25.5044 9.1891H31.3753C32.1702 9.1891 32.8146 8.54469 32.8146 7.74976C32.8146 6.95484 32.1702 6.31042 31.3753 6.31042H24.2932Z" fill="black"/>
<path d="M39.5666 7.89994C39.5666 5.76281 41.2901 4.31507 43.8581 4.31507C46.2365 4.31507 47.7705 5.64216 47.9083 7.79653H46.2021C46.1159 6.55562 45.2369 5.83175 43.8409 5.83175C42.2725 5.83175 41.2556 6.62456 41.2556 7.84824C41.2556 8.84787 41.8244 9.45109 42.9964 9.72685L45.0473 10.2094C47.0811 10.6748 48.1152 11.7778 48.1152 13.5358C48.1152 15.7763 46.3744 17.2068 43.7202 17.2068C41.1867 17.2068 39.4977 15.8797 39.3943 13.7426H41.1178C41.1522 14.9318 42.1519 15.6901 43.7202 15.6901C45.3748 15.6901 46.4261 14.9146 46.4261 13.6737C46.4261 12.6913 45.8918 12.0708 44.7026 11.795L42.6517 11.3297C40.6179 10.8644 39.5666 9.69238 39.5666 7.89994ZM49.9618 20.7745V8.57211H51.4268L51.5475 10.0888C52.1162 8.93404 53.2537 8.33082 54.5981 8.33082C57.0109 8.33082 58.5104 10.1405 58.5104 12.7257C58.5104 15.2937 57.0971 17.2241 54.5981 17.2241C53.2537 17.2241 52.1335 16.6553 51.5819 15.6212V20.7745H49.9618ZM51.5992 12.7947C51.5992 14.5182 52.5988 15.7591 54.2534 15.7591C55.9079 15.7591 56.8903 14.5182 56.8903 12.7947C56.8903 11.0539 55.9079 9.81302 54.2534 9.81302C52.5988 9.81302 51.5992 11.0367 51.5992 12.7947ZM63.9327 17.2068C61.4508 17.2068 59.7446 15.4144 59.7446 12.7947C59.7446 10.1577 61.4164 8.33082 63.8637 8.33082C66.2594 8.33082 67.8278 9.98537 67.8278 12.4844V13.0877L61.313 13.1049C61.4336 14.8801 62.3643 15.8625 63.9671 15.8625C65.2253 15.8625 66.0526 15.3454 66.3283 14.3803H67.845C67.4314 16.19 66.0181 17.2068 63.9327 17.2068ZM63.8637 9.69238C62.4505 9.69238 61.5542 10.5369 61.3474 12.0191H66.2077C66.2077 10.6231 65.2942 9.69238 63.8637 9.69238ZM68.5916 20.7745V19.4474H69.6774C70.453 19.4474 71.0735 19.3267 71.4699 18.2582L71.7629 17.4481L68.3676 8.57211H70.0738L72.5212 15.3627L75.0203 8.57211H76.6921L72.7108 18.8958C72.142 20.3436 71.2975 20.9468 70.0049 20.9468C69.4706 20.9468 69.0225 20.8779 68.5916 20.7745Z" fill="black"/>
<path d="M81.7762 7.89994C81.7762 5.76281 83.4996 4.31507 86.0677 4.31507C88.4461 4.31507 89.98 5.64216 90.1179 7.79653H88.4116C88.3254 6.55562 87.4465 5.83175 86.0504 5.83175C84.482 5.83175 83.4652 6.62456 83.4652 7.84824C83.4652 8.84787 84.0339 9.45109 85.2059 9.72685L87.2569 10.2094C89.2906 10.6748 90.3247 11.7778 90.3247 13.5358C90.3247 15.7763 88.584 17.2068 85.9298 17.2068C83.3962 17.2068 81.7072 15.8797 81.6038 13.7426H83.3273C83.3618 14.9318 84.3614 15.6901 85.9298 15.6901C87.5843 15.6901 88.6357 14.9146 88.6357 13.6737C88.6357 12.6913 88.1014 12.0708 86.9122 11.795L84.8612 11.3297C82.8275 10.8644 81.7762 9.69238 81.7762 7.89994ZM91.6199 12.7947C91.6199 10.1577 93.2917 8.33082 95.7563 8.33082C97.8762 8.33082 99.3584 9.53726 99.6514 11.4159H98.0313C97.7555 10.3473 96.8938 9.77855 95.808 9.77855C94.2741 9.77855 93.2227 10.9505 93.2227 12.7774C93.2227 14.5871 94.2051 15.7591 95.739 15.7591C96.8938 15.7591 97.7555 15.1559 98.0485 14.1562H99.6686C99.3411 15.9831 97.7727 17.2068 95.739 17.2068C93.2572 17.2068 91.6199 15.4489 91.6199 12.7947ZM100.826 12.7774C100.826 10.175 102.688 8.34805 105.221 8.34805C107.738 8.34805 109.599 10.175 109.599 12.7774C109.599 15.3799 107.738 17.2068 105.221 17.2068C102.688 17.2068 100.826 15.3799 100.826 12.7774ZM102.464 12.7774C102.464 14.5354 103.584 15.7591 105.221 15.7591C106.841 15.7591 107.979 14.5354 107.979 12.7774C107.979 11.0195 106.841 9.79579 105.221 9.79579C103.584 9.79579 102.464 11.0195 102.464 12.7774ZM116.218 8.50317V9.98537H115.494C113.96 9.98537 113.012 10.9161 113.012 12.5361V17H111.392V8.58934H112.909L113.012 9.86473C113.357 8.98575 114.202 8.39976 115.356 8.39976C115.649 8.39976 115.891 8.43423 116.218 8.50317ZM121.071 17.2068C118.589 17.2068 116.883 15.4144 116.883 12.7947C116.883 10.1577 118.555 8.33082 121.002 8.33082C123.398 8.33082 124.966 9.98537 124.966 12.4844V13.0877L118.452 13.1049C118.572 14.8801 119.503 15.8625 121.106 15.8625C122.364 15.8625 123.191 15.3454 123.467 14.3803H124.984C124.57 16.19 123.157 17.2068 121.071 17.2068ZM121.002 9.69238C119.589 9.69238 118.693 10.5369 118.486 12.0191H123.346C123.346 10.6231 122.433 9.69238 121.002 9.69238Z" fill="black"/>
</svg>
