<svg width="122" height="22" viewBox="0 0 122 22" fill="none" xmlns="http://www.w3.org/2000/svg">
<path d="M13.5323 7.55103C14.0362 7.31801 14.3589 6.81337 14.3589 6.25813C14.3589 5.2189 13.282 4.52949 12.3382 4.96453L8.05055 6.94093C7.46685 7.20999 6.83176 7.34932 6.18903 7.34932H1.29522C0.579218 7.34932 -0.0012207 7.92976 -0.0012207 8.64576C-0.0012207 9.36177 0.579217 9.94221 1.29522 9.94221H6.85279C7.84614 9.94221 8.82762 9.72629 9.72925 9.30941L13.5323 7.55103Z" fill="white"/>
<path d="M20.4507 15.0355C19.9361 15.3002 19.6125 15.8304 19.6125 16.4091C19.6125 17.5677 20.8408 18.3139 21.8691 17.78L25.798 15.7398C26.4008 15.4268 27.07 15.2634 27.7492 15.2634H31.4726C32.268 15.2634 32.9129 14.6186 32.9129 13.8231C32.9129 13.0277 32.268 12.3828 31.4726 12.3828H27.0318C26.0961 12.3828 25.1739 12.6061 24.3418 13.0341L20.4507 15.0355Z" fill="white"/>
<path d="M24.292 6.81042C23.2083 6.81042 22.1363 7.03398 21.143 7.46711L11.0375 11.8734C10.0442 12.3065 8.97215 12.53 7.88847 12.53H1.43932C0.64373 12.53 -0.0012207 13.175 -0.0012207 13.9706C-0.0012207 14.7662 0.643729 15.4111 1.43931 15.4111H9.21673C10.3008 15.4111 11.3732 15.1874 12.3668 14.754L22.5804 10.2988C23.5024 9.89667 24.4974 9.6891 25.5032 9.6891H31.3741C32.169 9.6891 32.8134 9.04469 32.8134 8.24976C32.8134 7.45484 32.169 6.81042 31.3741 6.81042H24.292Z" fill="white"/>
<path d="M39.7888 8.39994C39.7888 6.26281 41.5123 4.81507 44.0803 4.81507C46.4587 4.81507 47.9927 6.14216 48.1305 8.29653H46.4243C46.3381 7.05562 45.4591 6.33175 44.0631 6.33175C42.4947 6.33175 41.4778 7.12456 41.4778 8.34824C41.4778 9.34787 42.0466 9.95109 43.2186 10.2268L45.2695 10.7094C47.3033 11.1748 48.3374 12.2778 48.3374 14.0358C48.3374 16.2763 46.5966 17.7068 43.9424 17.7068C41.4089 17.7068 39.7199 16.3797 39.6165 14.2426H41.34C41.3744 15.4318 42.3741 16.1901 43.9424 16.1901C45.597 16.1901 46.6483 15.4146 46.6483 14.1737C46.6483 13.1913 46.114 12.5708 44.9248 12.295L42.8739 11.8297C40.8401 11.3644 39.7888 10.1924 39.7888 8.39994ZM50.1841 21.2745V9.07211H51.649L51.7697 10.5888C52.3384 9.43404 53.4759 8.83082 54.8203 8.83082C57.2332 8.83082 58.7326 10.6405 58.7326 13.2257C58.7326 15.7937 57.3193 17.7241 54.8203 17.7241C53.4759 17.7241 52.3557 17.1553 51.8041 16.1212V21.2745H50.1841ZM51.8214 13.2947C51.8214 15.0182 52.821 16.2591 54.4756 16.2591C56.1301 16.2591 57.1125 15.0182 57.1125 13.2947C57.1125 11.5539 56.1301 10.313 54.4756 10.313C52.821 10.313 51.8214 11.5367 51.8214 13.2947ZM64.1549 17.7068C61.673 17.7068 59.9668 15.9144 59.9668 13.2947C59.9668 10.6577 61.6386 8.83082 64.0859 8.83082C66.4816 8.83082 68.05 10.4854 68.05 12.9844V13.5877L61.5352 13.6049C61.6558 15.3801 62.5865 16.3625 64.1893 16.3625C65.4475 16.3625 66.2748 15.8454 66.5505 14.8803H68.0672C67.6536 16.69 66.2403 17.7068 64.1549 17.7068ZM64.0859 10.1924C62.6727 10.1924 61.7764 11.0369 61.5696 12.5191H66.4299C66.4299 11.1231 65.5164 10.1924 64.0859 10.1924ZM68.8138 21.2745V19.9474H69.8996C70.6752 19.9474 71.2957 19.8267 71.6921 18.7582L71.9851 17.9481L68.5898 9.07211H70.296L72.7434 15.8627L75.2425 9.07211H76.9143L72.933 19.3958C72.3642 20.8436 71.5197 21.4468 70.2271 21.4468C69.6928 21.4468 69.2447 21.3779 68.8138 21.2745ZM77.7596 8.39994C77.7596 6.26281 79.4831 4.81507 82.0511 4.81507C84.4295 4.81507 85.9634 6.14216 86.1013 8.29653H84.395C84.3089 7.05562 83.4299 6.33175 82.0338 6.33175C80.4655 6.33175 79.4486 7.12456 79.4486 8.34824C79.4486 9.34787 80.0174 9.95109 81.1893 10.2268L83.2403 10.7094C85.274 11.1748 86.3081 12.2778 86.3081 14.0358C86.3081 16.2763 84.5674 17.7068 81.9132 17.7068C79.3797 17.7068 77.6906 16.3797 77.5872 14.2426H79.3107C79.3452 15.4318 80.3448 16.1901 81.9132 16.1901C83.5678 16.1901 84.6191 15.4146 84.6191 14.1737C84.6191 13.1913 84.0848 12.5708 82.8956 12.295L80.8446 11.8297C78.8109 11.3644 77.7596 10.1924 77.7596 8.39994ZM87.6033 13.2947C87.6033 10.6577 89.2751 8.83082 91.7397 8.83082C93.8596 8.83082 95.3418 10.0373 95.6348 11.9159H94.0147C93.7389 10.8473 92.8772 10.2786 91.7914 10.2786C90.2575 10.2786 89.2061 11.4505 89.2061 13.2774C89.2061 15.0871 90.1885 16.2591 91.7225 16.2591C92.8772 16.2591 93.7389 15.6559 94.0319 14.6562H95.652C95.3246 16.4831 93.7562 17.7068 91.7225 17.7068C89.2406 17.7068 87.6033 15.9489 87.6033 13.2947ZM96.8099 13.2774C96.8099 10.675 98.6712 8.84805 101.205 8.84805C103.721 8.84805 105.582 10.675 105.582 13.2774C105.582 15.8799 103.721 17.7068 101.205 17.7068C98.6712 17.7068 96.8099 15.8799 96.8099 13.2774ZM98.4472 13.2774C98.4472 15.0354 99.5675 16.2591 101.205 16.2591C102.825 16.2591 103.962 15.0354 103.962 13.2774C103.962 11.5195 102.825 10.2958 101.205 10.2958C99.5675 10.2958 98.4472 11.5195 98.4472 13.2774ZM112.202 9.00317V10.4854H111.478C109.944 10.4854 108.996 11.4161 108.996 13.0361V17.5H107.376V9.08934H108.893L108.996 10.3647C109.341 9.48575 110.185 8.89976 111.34 8.89976C111.633 8.89976 111.874 8.93423 112.202 9.00317ZM117.055 17.7068C114.573 17.7068 112.867 15.9144 112.867 13.2947C112.867 10.6577 114.538 8.83082 116.986 8.83082C119.381 8.83082 120.95 10.4854 120.95 12.9844V13.5877L114.435 13.6049C114.556 15.3801 115.486 16.3625 117.089 16.3625C118.347 16.3625 119.175 15.8454 119.45 14.8803H120.967C120.553 16.69 119.14 17.7068 117.055 17.7068ZM116.986 10.1924C115.573 10.1924 114.676 11.0369 114.469 12.5191H119.33C119.33 11.1231 118.416 10.1924 116.986 10.1924Z" fill="white"/>
</svg>
