<svg width="33" height="10" viewBox="0 0 33 10" fill="none" xmlns="http://www.w3.org/2000/svg">
<path d="M24.2921 0.810364C23.2084 0.810364 22.1364 1.03392 21.1431 1.46705L11.0376 5.87329C10.0443 6.30642 8.97224 6.52997 7.88856 6.52997H1.43941C0.643821 6.52997 -0.00112915 7.17492 -0.00112915 7.97051C-0.00112915 8.76609 0.64382 9.41104 1.43941 9.41104H9.21682C10.3009 9.41104 11.3733 9.18733 12.3669 8.75391L22.5805 4.29875C23.5025 3.8966 24.4975 3.68904 25.5033 3.68904H31.3742C32.1691 3.68904 32.8135 3.04463 32.8135 2.2497C32.8135 1.45478 32.1691 0.810364 31.3742 0.810364H24.2921Z" fill="white"/>
</svg>
