<svg width="170" height="84" viewBox="0 0 170 84" fill="none" xmlns="http://www.w3.org/2000/svg">
<path d="M75.0475 29.9962C76.7623 29.2034 77.8601 27.4863 77.8601 25.5971C77.8601 22.0612 74.1959 19.7155 70.9846 21.1957L56.3961 27.9204C54.41 28.8358 52.2491 29.3099 50.0622 29.3099H33.4111C30.9749 29.3099 29 31.2848 29 33.721C29 36.1572 30.9749 38.1322 33.4111 38.1322H53.9312C56.2501 38.1322 58.5412 37.6281 60.646 36.6549L75.0475 29.9962Z" fill="#1E1E1E"/>
<path d="M98.5977 55.4615C96.8466 56.3622 95.7458 58.1661 95.7458 60.1353C95.7458 64.0775 99.925 66.6164 103.424 64.7997L116.792 57.8582C118.843 56.7931 121.12 56.2372 123.431 56.2372H136.099C138.806 56.2372 141 54.0431 141 51.3365C141 48.63 138.806 46.4359 136.099 46.4359H120.019C117.473 46.4359 114.964 47.0433 112.701 48.2077L98.5977 55.4615Z" fill="#1E1E1E"/>
<path d="M109.404 27.4761C107.203 27.4761 105.026 27.9301 103.009 28.8097L64.4933 45.6035C62.476 46.4831 60.299 46.937 58.0983 46.937H33.9014C31.1944 46.937 29 49.1315 29 51.8384C29 54.5454 31.1944 56.7398 33.9014 56.7398H62.6185C64.82 56.7398 66.9977 56.2855 69.0156 55.4054L107.53 38.6053C109.548 37.7251 111.726 37.2708 113.927 37.2708H135.754C138.459 37.2708 140.651 35.0782 140.651 32.3735C140.651 29.6687 138.459 27.4761 135.754 27.4761H109.404Z" fill="#1E1E1E"/>
</svg>
